# Blender v3.0.1 OBJ File: 'uploads_files_918168_gasstation.blend'
# www.blender.org
mtllib gasstationBody_1.mtl
o gasstation_red_Plane.004
v -13.214986 0.194098 -15.332819
v -19.174837 0.194098 -0.983441
v -13.214986 0.344098 -9.423304
v -19.174837 0.194098 -8.964786
v 2.827811 0.328673 -9.438263
v 2.594718 4.473222 -9.196195
v -12.987877 4.473222 -9.196195
v 2.021827 0.344098 -9.423304
v -12.414986 0.344098 -9.423304
v -12.811031 3.943224 -14.928864
v 2.417873 3.943224 -14.928864
v 2.021827 3.943224 -9.423304
v 2.021827 3.943224 -14.928864
v -12.414986 3.943224 -9.423304
v -12.414986 3.943224 -14.928864
v 2.021827 0.344098 -9.743304
v -12.414986 0.344098 -9.743304
v 2.021827 3.943224 -9.743304
v -12.414986 3.943224 -9.743304
v 2.021827 3.223224 -9.743304
v -12.414986 3.223224 -9.743304
v 2.021827 3.223224 -9.583304
v 2.021827 3.943224 -9.583304
v -12.414986 3.223224 -9.583304
v -12.414986 3.943224 -9.583304
v 2.417873 3.943224 -10.371035
v -12.811031 3.943224 -10.371035
v -13.214986 5.223223 -9.967080
v 2.821827 5.223223 -9.967080
v -12.987877 4.473222 -1.769363
v 2.594718 4.473222 -1.769363
v -13.214986 5.223223 -1.542254
v 2.821827 5.223223 -1.542254
v 2.821827 3.223224 -10.767080
v 2.821827 3.223224 -14.524120
v 2.514185 3.926840 -10.301620
v 2.514185 4.885252 -10.301620
v 2.514185 3.926840 -14.984770
v 2.514185 4.885252 -14.984770
v 2.742001 3.926840 -10.301620
v 2.742001 4.885252 -10.301620
v 2.742001 3.926840 -14.984770
v 2.742001 4.885252 -14.984770
v 2.821827 3.943224 -9.967080
v -13.214986 3.943224 -9.967080
v -12.414986 3.943224 -15.332819
v 2.021827 3.943224 -15.332819
v 2.821827 3.943224 -15.332819
v -13.214986 3.943224 -15.332819
v 2.417873 3.678944 -10.371035
v -12.811031 3.678944 -10.371035
v 2.417873 3.678944 -14.928864
v -12.811031 3.678944 -14.928864
v -2.778173 0.344098 -9.423304
v -2.778173 3.943224 -9.423304
v -2.778173 0.344098 -9.743304
v -2.778173 3.223224 -9.743304
v -2.778173 3.943224 -9.583304
v -2.778173 3.223224 -9.583304
v -7.796579 0.344098 -9.423304
v -7.796579 3.943224 -9.423304
v -7.796579 0.344098 -9.743304
v -7.796579 3.223224 -9.743304
v -7.796579 3.943224 -9.583304
v -7.796579 3.223224 -9.583304
v -7.396580 0.344098 -9.423304
v -7.396580 3.943224 -9.423304
v -7.396580 0.344098 -9.743304
v -7.396580 3.223224 -9.743304
v -7.396580 3.943224 -9.583304
v -7.396580 3.223224 -9.583304
v -2.378173 0.344098 -9.423304
v -2.378173 3.943224 -9.423304
v -2.378173 0.344098 -9.743304
v -2.378173 3.223224 -9.743304
v -2.378173 3.943224 -9.583304
v -2.378173 3.223224 -9.583304
v 2.338485 3.223098 -10.767080
v 2.338485 3.223098 -14.524120
v -13.214986 0.344098 -8.964786
v 2.821827 0.344098 -8.964786
v -13.214986 0.194098 -8.964786
v 9.478397 0.194098 -0.983441
v 9.478397 0.194098 -15.332819
v 2.821827 0.194098 -15.332819
v 2.821827 0.194098 -14.524120
v 2.821827 0.194098 -8.964786
v 2.821827 0.194098 -10.767080
v 2.338485 0.194098 -10.767080
v 2.338485 0.194098 -14.524120
v 2.821827 4.423223 -9.967080
v -13.214986 4.423220 -9.967080
v -11.799727 3.547896 -12.769639
v -11.799727 4.008161 -12.769639
v -11.799727 3.547896 -13.967169
v -11.799727 4.008161 -13.967169
v -10.602198 3.547896 -12.769639
v -10.602198 4.008161 -12.769639
v -10.602198 3.547896 -13.967169
v -10.602198 4.008161 -13.967169
v -2.773218 3.547896 -10.591293
v -2.773218 3.782332 -10.591293
v -2.773218 3.547896 -11.709673
v -2.773218 3.782332 -11.709673
v -1.654838 3.547896 -10.591293
v -1.654838 3.782332 -10.591293
v -1.654838 3.547896 -11.709673
v -1.654838 3.782332 -11.709673
v -2.566052 3.045048 -15.252410
v -2.566052 3.870148 -15.252410
v -2.566052 3.045048 -15.636156
v -2.566052 3.870148 -15.636156
v -0.566052 3.045048 -15.252410
v -0.566052 3.870148 -15.252410
v -0.566052 3.045048 -15.636156
v -0.566052 3.870148 -15.636156
v -13.214986 4.423223 -1.542254
v -13.214986 4.423223 -9.423304
v 2.821827 4.423223 -1.542254
v 2.821827 4.423223 -9.423304
v 2.438110 5.150856 -2.243414
v 2.438110 6.114332 -2.243414
v 2.438110 5.150856 -5.391969
v 2.438110 6.114332 -5.391969
v 2.615884 5.150856 -2.243414
v 2.615884 6.114332 -2.243414
v 2.615884 5.150856 -5.391969
v 2.615884 6.114332 -5.391969
v -11.888125 5.150856 -1.962288
v -11.888125 6.114332 -1.962288
v -8.739571 5.150856 -1.962288
v -8.739571 6.114332 -1.962288
v -11.888125 5.150856 -1.784514
v -11.888125 6.114332 -1.784514
v -8.739571 5.150856 -1.784514
v -8.739571 6.114332 -1.784514
v 3.139145 0.181027 -10.429447
v 3.139145 1.346523 -10.429447
v 3.139145 0.181027 -10.494473
v 3.139145 1.346523 -10.494473
v 3.204170 0.181027 -10.429447
v 3.204170 1.346523 -10.429447
v 3.204170 0.181027 -10.494473
v 3.204170 1.346523 -10.494473
v 3.128079 1.346523 -10.353200
v 3.128079 1.346523 -10.570720
v 3.214701 1.346523 -10.570720
v 3.214701 1.346523 -10.353200
v 3.128079 1.666646 -10.353200
v 3.128079 1.666646 -10.570720
v 3.214701 1.666646 -10.570720
v 3.214701 1.666646 -10.353200
v 2.825044 2.856366 -9.701585
v 2.825044 1.854347 -9.701585
v 2.825044 2.856366 -10.492816
v 2.825044 1.854347 -10.492816
v 2.886257 2.856366 -10.492816
v 2.886257 2.856366 -9.701585
v 2.886257 1.854347 -9.701585
v 2.886257 1.854347 -10.492816
v -2.105736 2.948645 -9.744215
v -2.105736 1.712667 -9.744215
v -1.129762 2.948645 -9.744215
v -1.129762 1.712667 -9.744215
v -1.129762 2.948645 -9.683002
v -2.105736 2.948645 -9.683002
v -2.105736 1.712667 -9.683002
v -1.129762 1.712667 -9.683002
v -13.214986 0.194098 -9.423318
v 2.827811 0.178673 -9.438261
vt 0.519043 0.052168
vt 0.519043 0.049632
vt 0.565908 0.049632
vt 0.919094 0.146761
vt 0.921451 0.076893
vt 0.921451 0.146761
vt 0.583552 0.074359
vt 0.507324 0.077970
vt 0.507324 0.074359
vt 0.740988 0.084995
vt 0.698321 0.080125
vt 0.740988 0.080125
vt 0.298480 0.340935
vt 0.364682 0.385153
vt 0.298480 0.377321
vt 0.008243 0.010547
vt 0.497079 0.010547
vt 0.497079 0.237921
vt 0.683819 0.775365
vt 0.708442 0.268476
vt 0.708442 0.775365
vt 0.903183 0.073589
vt 0.892577 0.143457
vt 0.892577 0.073589
vt 0.583552 0.181485
vt 0.583552 0.196676
vt 0.507324 0.196676
vt 0.979699 0.076952
vt 0.983737 0.076952
vt 0.979699 0.136791
vt 0.874205 0.225932
vt 0.982995 0.225932
vt 0.982995 0.757517
vt 0.819753 0.256361
vt 0.819513 0.248807
vt 0.821844 0.248807
vt 0.565908 0.054704
vt 0.507324 0.054705
vt 0.507324 0.066117
vt 0.519043 0.066117
vt 0.507324 0.071189
vt 0.921451 0.070841
vt 0.919094 0.076893
vt 0.919094 0.070841
vt 0.777348 0.016748
vt 0.774215 0.202143
vt 0.774215 0.016748
vt 0.874205 0.757517
vt 0.763597 0.439201
vt 0.819513 0.447876
vt 0.756140 0.447876
vt 0.746362 0.755605
vt 0.746362 0.744404
vt 0.751869 0.749949
vt 0.666912 0.790405
vt 0.988771 0.790405
vt 0.988771 0.991053
vt 0.910844 0.000973
vt 0.910844 0.067537
vt 0.906130 0.000973
vt 0.973914 0.212178
vt 0.973914 0.004395
vt 0.507324 0.062947
vt 0.507324 0.060411
vt 0.519043 0.060411
vt 0.507324 0.052168
vt 0.507324 0.029977
vt 0.554188 0.024905
vt 0.565908 0.029977
vt 0.240652 0.775018
vt 0.016572 0.594360
vt 0.240652 0.594360
vt 0.666912 0.991053
vt 0.903183 0.149508
vt 0.892577 0.219376
vt 0.892577 0.149508
vt 0.507324 0.033148
vt 0.554188 0.035684
vt 0.507324 0.038220
vt 0.556629 0.099633
vt 0.507324 0.099633
vt 0.507326 0.091972
vt 0.554188 0.033148
vt 0.507324 0.088802
vt 0.556627 0.081140
vt 0.556629 0.088802
vt 0.819520 0.755605
vt 0.910844 0.149508
vt 0.910844 0.219376
vt 0.906130 0.219376
vt 0.507324 0.181485
vt 0.702617 0.223252
vt 0.702617 0.214486
vt 0.704513 0.214486
vt 0.706884 0.223252
vt 0.706884 0.214486
vt 0.708781 0.214486
vt 0.638266 0.268476
vt 0.662889 0.775365
vt 0.638265 0.775365
vt 0.814013 0.536722
vt 0.819520 0.531066
vt 0.507324 0.041390
vt 0.554188 0.041390
vt 0.554188 0.043926
vt 0.979888 0.004317
vt 0.979699 0.014760
vt 0.903183 0.219376
vt 0.903183 0.143457
vt 0.849996 0.220492
vt 0.849996 0.526789
vt 0.847206 0.526789
vt 0.979699 0.141974
vt 0.983737 0.141974
vt 0.983737 0.201813
vt 0.565908 0.071189
vt 0.763597 0.264798
vt 0.756140 0.256123
vt 0.983737 0.071769
vt 0.774783 0.337502
vt 0.763597 0.350404
vt 0.695767 0.221814
vt 0.651322 0.221814
vt 0.651322 0.212075
vt 0.591424 0.103925
vt 0.632280 0.183788
vt 0.591424 0.183788
vt 0.916147 0.000973
vt 0.913790 0.143457
vt 0.913790 0.073589
vt 0.565908 0.046462
vt 0.507324 0.046462
vt 0.651322 0.036322
vt 0.651322 0.026583
vt 0.695767 0.026583
vt 0.979699 0.071769
vt 0.708781 0.223252
vt 0.822083 0.256361
vt 0.821844 0.277561
vt 0.903183 0.067537
vt 0.892577 0.067537
vt 0.979699 0.201813
vt 0.921451 0.000973
vt 0.565908 0.038220
vt 0.565908 0.024905
vt 0.919094 0.219376
vt 0.921451 0.152812
vt 0.921451 0.219376
vt 0.862158 0.192546
vt 0.814439 0.028814
vt 0.862158 0.028814
vt 0.983737 0.014760
vt 0.751869 0.536722
vt 0.746362 0.531066
vt 0.777348 0.202143
vt 0.768711 0.016748
vt 0.771844 0.016748
vt 0.771844 0.021569
vt 0.919094 0.152812
vt 0.507324 0.141431
vt 0.568478 0.133770
vt 0.568478 0.141431
vt 0.556629 0.091972
vt 0.008243 0.237921
vt 0.821844 0.353595
vt 0.821844 0.447876
vt 0.751869 0.542268
vt 0.746362 0.542268
vt 0.746678 0.016820
vt 0.983737 0.136791
vt 0.910844 0.143457
vt 0.079716 0.323481
vt 0.079716 0.246184
vt 0.138989 0.323481
vt 0.751869 0.744404
vt 0.746678 0.212052
vt 0.740988 0.141219
vt 0.903183 0.000973
vt 0.892577 0.000973
vt 0.740988 0.026560
vt 0.698138 0.016748
vt 0.565908 0.057875
vt 0.565908 0.062947
vt 0.293673 0.377321
vt 0.293673 0.340935
vt 0.576908 0.558794
vt 0.576908 0.212413
vt 0.611147 0.212413
vt 0.543134 0.120102
vt 0.558734 0.123714
vt 0.543134 0.123714
vt 0.558734 0.120102
vt 0.015860 0.989317
vt 0.015860 0.791528
vt 0.333133 0.791528
vt 0.649570 0.791280
vt 0.649570 0.989681
vt 0.346365 0.989681
vt 0.565908 0.035684
vt 0.698321 0.146088
vt 0.740988 0.146088
vt 0.814013 0.749949
vt 0.763597 0.353595
vt 0.507324 0.102803
vt 0.581513 0.102803
vt 0.581513 0.106992
vt 0.346365 0.791280
vt 0.298480 0.385153
vt 0.822073 0.480679
vt 0.818533 0.495969
vt 0.818533 0.480679
vt 0.513565 0.582693
vt 0.513565 0.212413
vt 0.547804 0.558794
vt 0.916147 0.219376
vt 0.632280 0.103925
vt 0.756140 0.264798
vt 0.910844 0.073589
vt 0.611147 0.582693
vt 0.507324 0.133770
vt 0.016572 0.775018
vt 0.698321 0.141219
vt 0.576908 0.582693
vt 0.556364 0.582693
vt 0.704513 0.223252
vt 0.333133 0.989317
vt 0.913790 0.067537
vt 0.507324 0.110162
vt 0.581513 0.110162
vt 0.581513 0.114351
vt 0.771844 0.202143
vt 0.768711 0.202143
vt 0.771844 0.197322
vt 0.774783 0.277562
vt 0.698321 0.084995
vt 0.554188 0.015395
vt 0.507324 0.021735
vt 0.507324 0.015395
vt 0.298480 0.323481
vt 0.364682 0.246184
vt 0.507324 0.106992
vt 0.698321 0.026560
vt 0.698321 0.212052
vt 0.698321 0.202313
vt 0.740988 0.202313
vt 0.662889 0.268476
vt 0.677663 0.775365
vt 0.847206 0.220492
vt 0.565908 0.066117
vt 0.507324 0.024905
vt 0.547804 0.212413
vt 0.919094 0.000973
vt 0.507324 0.114351
vt 0.507324 0.081140
vt 0.583552 0.077970
vt 0.979699 0.212178
vt 0.814439 0.192546
vt 0.913790 0.219376
vt 0.913790 0.149508
vt 0.821844 0.337502
vt 0.821844 0.350404
vt 0.554188 0.021735
vt 0.913790 0.000973
vt 0.565908 0.043926
vt 0.822073 0.495969
vt 0.519043 0.057875
vt 0.821844 0.455191
vt 0.819513 0.455191
vt 0.683819 0.268476
vt 0.547804 0.582693
vt 0.800663 0.477488
vt 0.807814 0.458382
vt 0.807814 0.477488
vt 0.818071 0.458382
vt 0.810921 0.477488
vt 0.810921 0.458382
vt 0.790405 0.477488
vt 0.797556 0.458382
vt 0.797556 0.477488
vt 0.787298 0.458382
vt 0.780147 0.477488
vt 0.780147 0.458382
vt 0.426266 0.772980
vt 0.609003 0.590243
vt 0.609003 0.772980
vt 0.805035 0.498521
vt 0.808677 0.480679
vt 0.808677 0.498521
vt 0.543134 0.126884
vt 0.561338 0.130600
vt 0.543134 0.130600
vt 0.798285 0.498521
vt 0.801928 0.480679
vt 0.801928 0.498521
vt 0.811784 0.498521
vt 0.815426 0.480679
vt 0.815426 0.498521
vt 0.426266 0.772980
vt 0.609003 0.590243
vt 0.609003 0.772980
vt 0.780147 0.480679
vt 0.786109 0.493842
vt 0.780147 0.493842
vt 0.024990 0.331318
vt 0.277021 0.435294
vt 0.024990 0.435294
vt 0.795178 0.493842
vt 0.789216 0.480679
vt 0.795178 0.480679
vt 0.539878 0.130600
vt 0.507324 0.117521
vt 0.539878 0.117521
vt 0.765209 0.458382
vt 0.771171 0.490290
vt 0.765209 0.490290
vt 0.762102 0.490290
vt 0.756140 0.458382
vt 0.762102 0.458382
vt 0.793194 0.013351
vt 0.883930 0.010587
vt 0.881238 0.013351
vt 0.793194 0.203053
vt 0.790502 0.010587
vt 0.881238 0.203053
vt 0.790502 0.205818
vt 0.883930 0.205818
vt 0.558573 0.178315
vt 0.507324 0.163043
vt 0.558573 0.163043
vt 0.756140 0.493481
vt 0.758902 0.508852
vt 0.756140 0.508852
vt 0.399243 0.565364
vt 0.014783 0.447718
vt 0.399243 0.447718
vt 0.768409 0.493481
vt 0.771171 0.508853
vt 0.768409 0.508853
vt 0.558573 0.159873
vt 0.507324 0.144601
vt 0.558573 0.144601
vt 0.507324 0.009407
vt 0.558573 0.012225
vt 0.507324 0.012225
vt 0.762540 0.493481
vt 0.765302 0.508853
vt 0.762540 0.508853
vt 0.399194 0.565340
vt 0.015306 0.447663
vt 0.399194 0.447663
vt 0.698138 0.214486
vt 0.700246 0.226216
vt 0.698138 0.226216
vt 0.774278 0.508614
vt 0.777040 0.458382
vt 0.777040 0.508615
vt 0.752000 0.316412
vt 0.753011 0.335007
vt 0.752000 0.335007
vt 0.752000 0.294627
vt 0.753011 0.313222
vt 0.752000 0.313222
vt 0.753011 0.378577
vt 0.752000 0.359983
vt 0.753011 0.359983
vt 0.752000 0.338198
vt 0.753011 0.356792
vt 0.752000 0.356792
vt 0.559743 0.021560
vt 0.557443 0.021735
vt 0.558684 0.021560
vt 0.791087 0.502140
vt 0.792433 0.497033
vt 0.792433 0.502140
vt 0.560984 0.020362
vt 0.560984 0.021735
vt 0.557443 0.020362
vt 0.558684 0.020529
vt 0.559743 0.020529
vt 0.819879 0.499160
vt 0.818533 0.502630
vt 0.818533 0.499160
vt 0.786634 0.502140
vt 0.787980 0.497033
vt 0.787980 0.502140
vt 0.469125 0.499058
vt 0.417600 0.574887
vt 0.417600 0.499058
vt 0.780147 0.502140
vt 0.783527 0.497033
vt 0.783527 0.502140
vt 0.250888 0.579794
vt 0.404021 0.773722
vt 0.250888 0.773722
vt 0.752000 0.473460
vt 0.752952 0.486084
vt 0.752000 0.486084
vt 0.752952 0.416932
vt 0.752000 0.400945
vt 0.752952 0.400945
vt 0.752952 0.397755
vt 0.752000 0.381768
vt 0.752952 0.381768
vt 0.752952 0.470269
vt 0.752000 0.457646
vt 0.752952 0.457646
vt 0.250888 0.579794
vt 0.404021 0.773722
vt 0.250888 0.773722
vt 0.752000 0.438884
vt 0.752952 0.454455
vt 0.752000 0.454455
vt 0.752000 0.271717
vt 0.752952 0.291436
vt 0.752000 0.291436
vt 0.752000 0.248807
vt 0.752952 0.268526
vt 0.752000 0.268526
vt 0.752000 0.420122
vt 0.752952 0.435693
vt 0.752000 0.435693
vt 0.298540 0.328066
vt 0.404021 0.579794
vt 0.752952 0.438884
vt 0.752952 0.271717
vt 0.752952 0.248807
vt 0.752952 0.420122
vt 0.404021 0.579794
vt 0.752952 0.473460
vt 0.752000 0.416932
vt 0.752000 0.397755
vt 0.752000 0.470269
vt 0.753011 0.316412
vt 0.753011 0.294627
vt 0.752000 0.378577
vt 0.753011 0.338198
vt 0.791087 0.497033
vt 0.819879 0.502630
vt 0.786634 0.497033
vt 0.469125 0.574887
vt 0.780147 0.497033
vt 0.766340 0.211979
vt 0.760649 0.211979
vt 0.760649 0.016748
vt 0.800663 0.458382
vt 0.818071 0.477488
vt 0.790405 0.458382
vt 0.787298 0.477488
vt 0.426266 0.590243
vt 0.805035 0.480679
vt 0.561338 0.126884
vt 0.798285 0.480679
vt 0.811784 0.480679
vt 0.426266 0.590243
vt 0.786109 0.480679
vt 0.277021 0.331318
vt 0.789216 0.493842
vt 0.507324 0.130600
vt 0.771171 0.458382
vt 0.756140 0.490290
vt 0.507324 0.178315
vt 0.758902 0.493481
vt 0.014783 0.565364
vt 0.771171 0.493481
vt 0.507324 0.159873
vt 0.558573 0.009407
vt 0.765302 0.493481
vt 0.015306 0.565340
vt 0.700246 0.214486
vt 0.774278 0.458382
vn -1.0000 0.0000 0.0000
vn 0.0000 -1.0000 0.0000
vn 0.0000 1.0000 0.0000
vn 0.0000 0.0000 1.0000
vn 1.0000 0.0000 0.0000
vn 0.9999 0.0000 0.0126
vn 0.0000 0.0000 -1.0000
vn 0.0185 0.9993 -0.0323
vn 1.0000 0.0015 -0.0013
vn 1.0000 0.0000 -0.0045
vn 0.0003 -1.0000 0.0000
vn 0.0022 -0.0037 1.0000
vn 0.0000 1.0000 0.0001
vn 0.0186 0.0000 0.9998
vn 0.2150 -0.9766 0.0000
vn 0.0000 -0.9766 -0.2150
vn -0.2150 -0.9766 0.0000
vn 0.0000 -0.9766 0.2150
vn -0.0315 0.9990 -0.0329
vn 0.0079 0.9999 0.0116
usemtl gasstation_red
s off
f 59/1/1 57/2/1 56/3/1
f 59/4/2 69/5/2 57/6/2
f 37/7/3 43/8/3 39/9/3
f 55/10/4 72/11/4 73/12/4
f 88/13/3 84/14/3 86/15/3
f 7/16/2 6/17/2 31/18/2
f 33/19/4 117/20/4 119/21/4
f 58/22/4 71/23/4 59/24/4
f 36/25/1 37/26/1 39/27/1
f 54/28/3 56/29/3 66/30/3
f 42/31/5 43/32/5 41/33/5
f 5/34/6 81/35/6 87/36/6
f 54/37/1 55/38/1 59/1/1
f 59/1/1 56/3/1 54/37/1
f 18/39/1 20/40/1 12/41/1
f 63/42/2 71/43/2 65/44/2
f 27/45/7 50/46/7 51/47/7
f 42/31/5 41/33/5 40/48/5
f 45/49/1 3/50/1 118/51/1
f 48/52/3 47/53/3 11/54/3
f 68/55/4 56/56/4 57/57/4
f 12/58/2 73/59/2 18/60/2
f 80/61/3 81/62/3 66/30/3
f 61/63/1 64/64/1 65/65/1
f 55/38/1 58/66/1 59/1/1
f 9/67/5 21/68/5 14/69/5
f 54/28/3 66/30/3 81/62/3
f 79/70/5 89/71/5 90/72/5
f 68/55/4 57/57/4 69/73/4
f 64/74/4 24/75/4 65/76/4
f 74/77/5 77/78/5 72/79/5
f 86/80/4 35/81/4 79/82/4
f 74/77/5 75/83/5 77/78/5
f 88/84/7 78/85/7 34/86/7
f 44/87/3 48/52/3 11/54/3
f 61/88/2 14/89/2 19/90/2
f 63/42/2 69/5/2 71/43/2
f 36/25/1 39/27/1 38/91/1
f 24/92/1 25/93/1 19/94/1
f 23/95/5 22/96/5 20/97/5
f 29/98/7 92/99/7 28/100/7
f 27/101/3 45/102/3 44/87/3
f 68/103/5 69/104/5 71/105/5
f 81/62/8 5/106/8 8/107/8
f 59/4/2 71/43/2 69/5/2
f 64/74/4 25/108/4 24/75/4
f 65/76/4 70/109/4 64/74/4
f 82/110/4 87/111/4 81/112/4
f 60/113/3 62/114/3 17/115/3
f 8/116/1 12/41/1 20/40/1
f 44/117/9 120/118/9 5/34/9
f 54/28/3 74/119/3 56/29/3
f 35/120/5 48/121/5 44/117/5
f 1/122/7 49/123/7 46/124/7
f 33/125/3 28/126/3 32/127/3
f 18/128/3 70/129/3 58/130/3
f 71/105/5 67/131/5 66/132/5
f 47/133/7 48/134/7 85/135/7
f 81/62/3 8/107/3 72/136/3
f 23/95/5 20/97/5 18/137/5
f 5/34/10 170/138/10 88/139/10
f 76/140/4 59/24/4 77/141/4
f 60/113/3 17/115/3 9/142/3
f 21/143/2 63/42/2 65/44/2
f 73/144/5 72/79/5 77/78/5
f 19/145/5 14/69/5 21/68/5
f 22/146/2 75/147/2 20/148/2
f 53/149/3 50/150/3 52/151/3
f 8/107/3 16/152/3 74/119/3
f 27/101/3 10/153/3 49/154/3
f 27/45/7 26/155/7 50/46/7
f 52/156/4 11/157/4 13/158/4
f 57/6/2 77/159/2 59/4/2
f 79/160/11 34/161/11 78/162/11
f 86/80/4 79/82/4 90/163/4
f 7/16/2 31/18/2 30/164/2
f 1/165/1 169/166/1 3/50/1
f 10/153/3 15/167/3 46/168/3
f 55/10/4 73/12/4 120/169/4
f 60/113/3 66/30/3 68/170/3
f 67/171/2 61/88/2 19/90/2
f 60/113/3 9/142/3 80/61/3
f 4/172/3 2/173/3 82/174/3
f 15/167/3 13/175/3 47/53/3
f 120/169/4 118/176/4 67/177/4
f 60/113/3 68/170/3 62/114/3
f 19/90/2 18/60/2 67/171/2
f 23/178/4 77/141/4 22/179/4
f 12/180/12 5/181/12 120/169/12
f 62/182/1 60/183/1 65/65/1
f 86/15/3 90/184/3 89/185/3
f 118/186/1 117/187/1 32/188/1
f 43/189/7 38/190/7 39/191/7
f 43/189/7 42/192/7 38/190/7
f 21/193/4 17/194/4 62/195/4
f 16/196/4 20/197/4 75/198/4
f 77/78/5 76/199/5 73/144/5
f 60/200/4 67/177/4 61/201/4
f 47/53/3 13/175/3 11/54/3
f 10/153/3 46/168/3 49/154/3
f 44/87/3 26/202/3 27/101/3
f 65/76/4 71/23/4 70/109/4
f 45/49/1 49/203/1 1/165/1
f 27/101/3 49/154/3 45/102/3
f 44/87/3 11/54/3 26/202/3
f 52/204/1 50/205/1 26/206/1
f 15/167/3 47/53/3 46/168/3
f 16/196/4 75/198/4 74/207/4
f 84/14/3 85/208/3 86/15/3
f 37/209/4 40/210/4 41/211/4
f 29/212/5 33/213/5 120/214/5
f 61/63/1 65/65/1 60/183/1
f 22/146/2 77/159/2 75/147/2
f 18/128/3 19/215/3 70/129/3
f 33/125/3 29/216/3 28/126/3
f 44/117/5 91/217/5 120/118/5
f 73/59/2 55/218/2 18/60/2
f 118/186/1 32/188/1 28/219/1
f 79/160/11 35/220/11 34/161/11
f 79/70/5 78/221/5 89/71/5
f 60/200/4 66/222/4 67/177/4
f 118/186/1 92/223/1 45/224/1
f 73/12/4 12/180/4 120/169/4
f 24/92/1 19/94/1 21/225/1
f 1/122/7 46/124/7 47/133/7
f 21/193/4 62/195/4 63/226/4
f 66/30/3 60/113/3 80/61/3
f 57/6/2 75/147/2 77/159/2
f 58/130/13 76/227/13 18/128/13
f 51/228/5 53/229/5 10/230/5
f 10/231/4 53/232/4 15/233/4
f 44/117/9 5/34/9 34/234/9
f 55/10/4 54/235/4 72/11/4
f 56/236/4 75/237/4 57/238/4
f 87/239/3 82/174/3 2/173/3
f 34/234/5 35/120/5 44/117/5
f 87/239/3 2/173/3 83/240/3
f 52/204/1 26/206/1 11/241/1
f 12/180/14 8/242/14 5/181/14
f 56/29/3 68/170/3 66/30/3
f 23/178/4 76/140/4 77/141/4
f 118/176/4 61/201/4 67/177/4
f 3/243/4 9/244/4 14/245/4
f 76/140/4 58/22/4 59/24/4
f 91/246/7 45/247/7 29/98/7
f 82/110/4 81/112/4 80/248/4
f 15/233/4 53/232/4 52/156/4
f 47/133/7 85/135/7 1/122/7
f 8/107/3 74/119/3 72/136/3
f 20/40/1 16/249/1 8/116/1
f 54/28/3 72/136/3 74/119/3
f 86/15/3 89/185/3 88/13/3
f 67/177/4 55/10/4 120/169/4
f 9/67/5 17/250/5 21/68/5
f 14/245/4 61/201/4 118/176/4
f 83/240/3 84/14/3 87/239/3
f 33/213/5 119/251/5 120/214/5
f 21/143/2 65/44/2 24/252/2
f 51/228/5 10/230/5 27/253/5
f 88/84/7 89/254/7 78/85/7
f 37/7/3 41/255/3 43/8/3
f 9/142/3 3/256/3 80/61/3
f 53/149/3 51/257/3 50/150/3
f 52/156/4 13/158/4 15/233/4
f 19/215/3 25/258/3 64/259/3
f 45/49/1 1/165/1 3/50/1
f 35/120/5 86/260/5 85/261/5
f 66/132/5 68/103/5 71/105/5
f 35/120/5 85/261/5 48/121/5
f 58/22/4 70/109/4 71/23/4
f 72/136/3 54/28/3 81/62/3
f 56/236/4 74/262/4 75/237/4
f 76/227/3 23/263/3 18/128/3
f 71/105/5 70/264/5 67/131/5
f 37/209/4 36/265/4 40/210/4
f 5/34/10 88/139/10 34/234/10
f 65/65/1 63/266/1 62/182/1
f 118/176/4 3/243/4 14/245/4
f 64/259/3 70/129/3 19/215/3
f 82/267/1 80/268/1 3/50/1
f 33/19/4 32/269/4 117/20/4
f 67/171/2 18/60/2 55/218/2
f 120/214/5 91/270/5 29/212/5
f 92/223/1 118/186/1 28/219/1
f 94/271/1 95/272/1 93/273/1
f 96/274/7 99/275/7 95/276/7
f 100/277/5 97/278/5 99/279/5
f 98/280/4 93/281/4 97/282/4
f 96/283/3 98/284/3 100/285/3
f 102/286/1 103/287/1 101/288/1
f 104/289/7 107/290/7 103/291/7
f 108/292/5 105/293/5 107/294/5
f 106/295/4 101/296/4 105/297/4
f 104/298/3 106/299/3 108/300/3
f 110/301/1 111/302/1 109/303/1
f 112/304/7 115/305/7 111/306/7
f 116/307/5 113/308/5 115/309/5
f 114/310/4 109/311/4 113/312/4
f 115/313/2 109/314/2 111/315/2
f 112/316/3 114/317/3 116/318/3
f 30/319/15 118/320/15 7/321/15
f 31/322/16 117/323/16 30/319/16
f 6/324/17 119/325/17 31/322/17
f 7/321/18 120/326/18 6/324/18
f 122/327/1 123/328/1 121/329/1
f 124/330/7 127/331/7 123/332/7
f 128/333/5 125/334/5 127/335/5
f 126/336/4 121/337/4 125/338/4
f 130/339/7 131/340/7 129/341/7
f 124/342/3 126/343/3 128/344/3
f 132/345/5 135/346/5 131/347/5
f 136/348/4 133/349/4 135/350/4
f 134/351/1 129/352/1 133/353/1
f 132/354/3 134/355/3 136/356/3
f 138/357/1 139/358/1 137/359/1
f 140/360/7 143/361/7 139/362/7
f 144/363/5 141/364/5 143/365/5
f 142/366/4 137/367/4 141/368/4
f 138/369/2 146/370/2 140/371/2
f 148/372/4 149/373/4 145/374/4
f 138/369/2 148/375/2 145/376/2
f 140/371/2 147/377/2 144/378/2
f 144/378/2 148/375/2 142/379/2
f 150/380/3 152/381/3 151/382/3
f 146/383/7 151/384/7 147/385/7
f 147/386/5 152/387/5 148/388/5
f 145/389/1 150/390/1 146/391/1
f 159/392/5 157/393/5 158/394/5
f 153/395/3 157/396/3 155/397/3
f 155/398/7 160/399/7 156/400/7
f 154/401/4 158/402/4 153/403/4
f 156/404/2 159/405/2 154/406/2
f 167/407/4 165/408/4 166/409/4
f 161/410/3 165/411/3 163/412/3
f 163/413/5 168/414/5 164/415/5
f 162/416/1 166/417/1 161/418/1
f 164/419/2 167/420/2 162/421/2
f 3/50/1 169/166/1 82/267/1
f 170/138/6 5/34/6 87/36/6
f 84/14/19 170/422/19 87/239/19
f 84/14/20 88/13/20 170/422/20
f 167/407/4 168/423/4 165/408/4
f 161/410/3 166/424/3 165/411/3
f 163/413/5 165/425/5 168/414/5
f 162/416/1 167/426/1 166/417/1
f 164/419/2 168/427/2 167/420/2
f 159/392/5 160/428/5 157/393/5
f 153/395/3 158/429/3 157/396/3
f 155/398/7 157/430/7 160/399/7
f 154/401/4 159/431/4 158/402/4
f 156/404/2 160/432/2 159/405/2
f 138/357/1 140/433/1 139/358/1
f 140/360/7 144/434/7 143/361/7
f 144/363/5 142/435/5 141/364/5
f 142/366/4 138/436/4 137/367/4
f 138/369/2 145/376/2 146/370/2
f 148/372/4 152/437/4 149/373/4
f 138/369/2 142/379/2 148/375/2
f 140/371/2 146/370/2 147/377/2
f 144/378/2 147/377/2 148/375/2
f 150/380/3 149/438/3 152/381/3
f 146/383/7 150/439/7 151/384/7
f 147/386/5 151/440/5 152/387/5
f 145/389/1 149/441/1 150/390/1
f 29/98/7 45/247/7 92/99/7
f 91/442/7 44/443/7 45/444/7
f 94/271/1 96/445/1 95/272/1
f 96/274/7 100/446/7 99/275/7
f 100/277/5 98/447/5 97/278/5
f 98/280/4 94/448/4 93/281/4
f 96/283/3 94/449/3 98/284/3
f 102/286/1 104/450/1 103/287/1
f 104/289/7 108/451/7 107/290/7
f 108/292/5 106/452/5 105/293/5
f 106/295/4 102/453/4 101/296/4
f 104/298/3 102/454/3 106/299/3
f 110/301/1 112/455/1 111/302/1
f 112/304/7 116/456/7 115/305/7
f 116/307/5 114/457/5 113/308/5
f 114/310/4 110/458/4 109/311/4
f 115/313/2 113/459/2 109/314/2
f 112/316/3 110/460/3 114/317/3
f 30/319/15 117/323/15 118/320/15
f 31/322/16 119/325/16 117/323/16
f 6/324/17 120/326/17 119/325/17
f 7/321/18 118/320/18 120/326/18
f 122/327/1 124/461/1 123/328/1
f 124/330/7 128/462/7 127/331/7
f 128/333/5 126/463/5 125/334/5
f 126/336/4 122/464/4 121/337/4
f 130/339/7 132/465/7 131/340/7
f 124/342/3 122/466/3 126/343/3
f 132/345/5 136/467/5 135/346/5
f 136/348/4 134/468/4 133/349/4
f 134/351/1 130/469/1 129/352/1
f 132/354/3 130/470/3 134/355/3
