# Blender v2.79 (sub 0) OBJ File: 'Campfire1.blend'
# www.blender.org
mtllib Campfire1.mtl
o Plane
v -0.282622 0.028707 -0.119857
v 0.287199 0.028707 -0.024630
v -0.282622 0.028707 -0.243529
v 0.287199 0.048724 -0.112550
v 0.287199 0.115101 -0.128486
v 0.287199 0.079659 0.010317
v 0.287199 0.153647 -0.040810
v -0.282622 0.118725 -0.087027
v -0.279988 0.091367 -0.190963
v -0.282622 0.149460 -0.256216
v -0.282622 0.180815 -0.158274
v 0.287199 0.089816 0.064727
v 0.287199 0.028707 0.138996
v 0.287199 0.144411 0.114602
v 0.287199 0.144411 0.172648
v 0.287199 0.086007 0.234653
v -0.278077 0.144411 0.096435
v -0.271401 0.028707 0.120829
v -0.278077 0.085370 0.015251
v -0.275667 0.092471 0.167404
v -0.130717 0.028707 -0.046852
v -0.077646 0.053037 -0.092048
v -0.022264 0.052578 -0.074710
v -0.073161 0.028707 -0.016405
v -0.029276 0.028707 -0.029031
v 0.111473 0.165357 0.072661
v 0.063052 0.164742 0.142158
v 0.115632 0.165183 0.139110
v 0.036561 0.173668 0.043851
v 0.007976 0.153114 0.086947
v -0.495370 0.000000 -0.482152
v -0.293017 0.000000 -0.610439
v -0.132933 0.000000 -0.599138
v -0.175974 0.000000 -0.814265
v -0.605692 0.000000 -0.619511
v -0.845761 0.000000 -0.309013
v -0.929280 0.000000 0.050551
v -0.710798 0.000000 -0.380225
v -0.810781 0.000000 0.339611
v -0.574122 0.000000 0.400605
v -0.449306 0.000000 0.692237
v -0.491984 0.000000 0.509682
v -0.128335 0.000000 0.663004
v 0.158134 0.000000 0.663004
v -0.250736 0.000000 0.743812
v -0.026575 0.000000 0.800935
v 0.086908 0.000000 0.779213
v 0.385122 0.000000 0.750390
v 0.318234 0.000000 0.576163
v 0.560112 0.000000 0.417738
v 0.622995 0.000000 0.549036
v 0.058219 0.000000 -0.769190
v 0.418916 0.000000 -0.759886
v 0.666101 0.000000 -0.562234
v 0.609933 0.000000 -0.404372
v 0.492928 0.000000 -0.375903
v 0.159809 0.000000 -0.562446
v 0.865541 0.000000 -0.266622
v 0.935863 0.000000 0.039124
v 0.923326 0.000000 0.299972
v 0.788388 0.000000 0.418478
v 0.660515 0.000000 0.232739
v 0.660515 0.000000 -0.108643
v 0.760289 0.000000 -0.232886
v -0.633887 0.000000 -0.223031
v 0.281630 0.000000 0.687806
v -0.074469 0.000000 -0.716818
v -0.606566 0.000000 -0.501781
v 0.595998 0.113126 0.549036
v 0.560112 0.143047 0.484810
v 0.345895 0.095589 0.598568
v 0.321190 0.095589 0.680764
v 0.404004 0.086485 0.689191
v 0.396461 0.162224 0.651335
v 0.529833 0.162224 0.556825
v -0.417817 0.074206 0.596892
v -0.407525 0.123038 0.682927
v -0.250736 0.116757 0.702269
v -0.128335 0.104858 0.707603
v -0.026575 0.138095 0.768904
v 0.050837 0.156106 0.755093
v 0.084819 0.112941 0.696979
v -0.685576 0.159883 0.326052
v -0.756450 0.125680 0.290394
v -0.927525 0.159389 0.052405
v -0.716841 0.153085 -0.170796
v -0.845761 0.143417 -0.264602
v -0.735738 0.140653 -0.304265
v -0.785387 0.233652 -0.198651
v -0.824730 0.257723 0.047247
v -0.764210 0.205205 0.236004
v -0.182947 0.109460 -0.654365
v -0.147417 0.089193 -0.703342
v -0.196623 0.113208 -0.745101
v -0.319486 0.113750 -0.652118
v -0.503419 0.151812 -0.522784
v -0.565047 0.150003 -0.545067
v -0.537745 0.138455 -0.602007
v 0.152817 0.151554 -0.697209
v 0.207113 0.133057 -0.598811
v 0.366116 0.116056 -0.687509
v 0.482913 0.141198 -0.445084
v 0.548685 0.119032 -0.451727
v 0.573757 0.121251 -0.554049
v 0.482648 0.181106 -0.528652
v 0.297257 0.181106 -0.643829
v 0.828745 0.095712 -0.203867
v 0.768452 0.099130 -0.181860
v 0.715223 0.099278 -0.084054
v 0.722820 0.097473 0.207769
v 0.788955 0.097473 0.348568
v 0.874779 0.084837 0.286047
v 0.902200 0.104402 0.047471
v 0.826559 0.178101 0.233867
v 0.826559 0.196964 0.067593
v 0.826559 0.157352 -0.098451
vt 0.557490 0.357047
vt 0.582189 0.362738
vt 0.582189 0.242840
vt 0.564656 0.238749
vt 0.054107 0.864368
vt 0.066067 0.873444
vt 0.068709 0.848219
vt 0.051064 0.839593
vt 0.036888 0.852795
vt 0.041186 0.873444
vt 0.582290 0.037364
vt 0.574334 0.038558
vt 0.582290 0.157018
vt 0.568707 0.156492
vt 0.559077 0.036928
vt 0.754524 0.933888
vt 0.747976 0.944644
vt 0.758772 0.959525
vt 0.772276 0.957065
vt 0.772276 0.937417
vt 0.657817 0.441813
vt 0.660015 0.560229
vt 0.676561 0.555378
vt 0.676561 0.436594
vt 0.341864 0.459061
vt 0.324559 0.458844
vt 0.328732 0.575086
vt 0.310732 0.575086
vt 0.310035 0.459571
vt 0.557612 0.237258
vt 0.548303 0.937740
vt 0.551703 0.962040
vt 0.567892 0.962040
vt 0.567893 0.944016
vt 0.667917 0.037967
vt 0.661521 0.153811
vt 0.656066 0.036928
vt 0.657817 0.634085
vt 0.674200 0.635896
vt 0.674200 0.752893
vt 0.658200 0.750305
vt 0.678150 0.038727
vt 0.678150 0.155121
vt 0.458233 0.552764
vt 0.452075 0.438881
vt 0.474527 0.436594
vt 0.474527 0.552535
vt 0.439918 0.555784
vt 0.443787 0.440203
vt 0.199441 0.960226
vt 0.184287 0.960226
vt 0.176267 0.951436
vt 0.176538 0.933968
vt 0.198427 0.940526
vt 0.871840 0.288099
vt 0.874701 0.301128
vt 0.864114 0.282946
vt 0.860057 0.298765
vt 0.855467 0.287826
vt 0.874701 0.245046
vt 0.867301 0.237258
vt 0.857563 0.246767
vt 0.862730 0.262240
vt 0.873725 0.261049
vt 0.660029 0.828013
vt 0.674200 0.826749
vt 0.674200 0.866123
vt 0.663837 0.864103
vt 0.654629 0.838621
vt 0.657301 0.879230
vt 0.946169 0.036928
vt 0.951782 0.041672
vt 0.951782 0.082934
vt 0.945479 0.072612
vt 0.055409 0.054017
vt 0.036888 0.115368
vt 0.060953 0.187163
vt 0.089876 0.199064
vt 0.102491 0.165456
vt 0.102491 0.036928
vt 0.455570 0.294951
vt 0.448743 0.343624
vt 0.461813 0.362738
vt 0.483714 0.352604
vt 0.483714 0.255822
vt 0.456939 0.245108
vt 0.439918 0.265998
vt 0.310035 0.101423
vt 0.320625 0.165480
vt 0.354474 0.171252
vt 0.371280 0.153164
vt 0.371280 0.074840
vt 0.331657 0.036928
vt 0.312589 0.269075
vt 0.340085 0.245108
vt 0.366142 0.283312
vt 0.366142 0.353086
vt 0.345811 0.378291
vt 0.324364 0.384988
vt 0.310035 0.322365
vt 0.212375 0.670131
vt 0.188883 0.662223
vt 0.176267 0.682752
vt 0.183512 0.741622
vt 0.212375 0.734064
vt 0.059613 0.330117
vt 0.073088 0.272920
vt 0.046559 0.281667
vt 0.036888 0.303302
vt 0.037737 0.350749
vt 0.038684 0.392825
vt 0.073088 0.409945
vt 0.771982 0.859253
vt 0.747976 0.860032
vt 0.768271 0.843584
vt 0.448949 0.049935
vt 0.467992 0.039509
vt 0.463899 0.088579
vt 0.445056 0.084031
vt 0.465757 0.139737
vt 0.453146 0.118093
vt 0.485237 0.090491
vt 0.485301 0.152822
vt 0.485301 0.036928
vt 0.791038 0.860032
vt 0.790266 0.833185
vt 0.571394 0.643295
vt 0.571098 0.677392
vt 0.550300 0.648555
vt 0.548303 0.708409
vt 0.564063 0.619769
vt 0.570949 0.711485
vt 0.571394 0.733160
vt 0.559064 0.728553
vt 0.963112 0.237258
vt 0.963112 0.259270
vt 0.948477 0.256605
vt 0.948918 0.244014
vt 0.768037 0.460767
vt 0.750337 0.467525
vt 0.751592 0.448181
vt 0.770814 0.436594
vt 0.770814 0.530581
vt 0.753362 0.527280
vt 0.761096 0.813376
vt 0.748916 0.834184
vt 0.451024 0.949137
vt 0.439433 0.919194
vt 0.425306 0.925400
vt 0.423209 0.949137
vt 0.866723 0.048452
vt 0.871703 0.037055
vt 0.856463 0.036928
vt 0.053856 0.737246
vt 0.072851 0.747417
vt 0.072851 0.694604
vt 0.050602 0.693903
vt 0.036888 0.733541
vt 0.038204 0.704500
vt 0.046576 0.752716
vt 0.062101 0.765737
vt 0.857794 0.087527
vt 0.870547 0.099488
vt 0.871703 0.081298
vt 0.577774 0.830106
vt 0.577566 0.807016
vt 0.557934 0.808895
vt 0.558090 0.825882
vt 0.548303 0.850464
vt 0.577774 0.863884
vt 0.933170 0.634902
vt 0.943183 0.659191
vt 0.956082 0.667308
vt 0.956082 0.634085
vt 0.209320 0.580869
vt 0.204948 0.564917
vt 0.176267 0.564914
vt 0.177781 0.588367
vt 0.206396 0.519618
vt 0.181027 0.519485
vt 0.209320 0.487645
vt 0.185318 0.479252
vt 0.864814 0.815455
vt 0.874805 0.833066
vt 0.890099 0.850589
vt 0.890099 0.813376
vt 0.051846 0.539845
vt 0.036888 0.541995
vt 0.049554 0.620047
vt 0.055280 0.601942
vt 0.754086 0.735819
vt 0.766086 0.739520
vt 0.755643 0.697089
vt 0.766086 0.634085
vt 0.750310 0.640479
vt 0.752292 0.672562
vt 0.747976 0.720539
vt 0.055280 0.496762
vt 0.038188 0.483801
vt 0.960941 0.458158
vt 0.960941 0.436594
vt 0.942471 0.438047
vt 0.939686 0.464392
vt 0.185800 0.330727
vt 0.188727 0.396186
vt 0.218087 0.405396
vt 0.218464 0.331211
vt 0.584041 0.436594
vt 0.562015 0.445338
vt 0.576756 0.456754
vt 0.204419 0.051978
vt 0.183457 0.072782
vt 0.202141 0.079554
vt 0.233959 0.036928
vt 0.236259 0.070214
vt 0.548303 0.510299
vt 0.571270 0.506775
vt 0.584041 0.545913
vt 0.192588 0.282850
vt 0.176267 0.293907
vt 0.218464 0.272558
vt 0.437192 0.823319
vt 0.442281 0.836993
vt 0.470895 0.845338
vt 0.470895 0.797114
vt 0.423209 0.840290
vt 0.200163 0.181676
vt 0.236259 0.198702
vt 0.176267 0.122507
vt 0.188427 0.162063
vt 0.769892 0.237258
vt 0.781691 0.243316
vt 0.763458 0.247917
vt 0.178619 0.860112
vt 0.203102 0.847577
vt 0.197055 0.837979
vt 0.176267 0.838551
vt 0.203102 0.828783
vt 0.180020 0.815478
vt 0.773856 0.273937
vt 0.781691 0.319266
vt 0.859394 0.718510
vt 0.859394 0.634085
vt 0.839862 0.654868
vt 0.845398 0.720615
vt 0.879854 0.924445
vt 0.868044 0.926771
vt 0.864814 0.955285
vt 0.888937 0.955285
vt 0.773097 0.328978
vt 0.764002 0.319093
vt 0.658114 0.237258
vt 0.655965 0.259831
vt 0.687953 0.258890
vt 0.689681 0.246496
vt 0.664730 0.302644
vt 0.689681 0.297870
vt 0.662947 0.335322
vt 0.688266 0.325859
vt 0.310035 0.940873
vt 0.328901 0.945956
vt 0.315356 0.961816
vt 0.328901 0.963072
vt 0.751926 0.067965
vt 0.779691 0.070670
vt 0.782687 0.050295
vt 0.757854 0.036928
vt 0.341038 0.672143
vt 0.333748 0.648942
vt 0.310756 0.666796
vt 0.310035 0.680882
vt 0.782687 0.101477
vt 0.755765 0.112653
vt 0.455016 0.642749
vt 0.443095 0.629640
vt 0.439918 0.680178
vt 0.452767 0.687425
vt 0.470895 0.699510
vt 0.470895 0.634731
vt 0.450507 0.723258
vt 0.341155 0.867018
vt 0.341155 0.814256
vt 0.313796 0.821904
vt 0.310035 0.850717
vt 0.865910 0.504603
vt 0.865910 0.436594
vt 0.844590 0.450972
vt 0.852256 0.496008
vt 0.341038 0.740400
vt 0.311594 0.737033
vn 0.0362 -0.9949 -0.0941
vn -1.0000 -0.0010 -0.0098
vn 0.1526 0.6314 -0.7603
vn 0.1041 -0.7407 -0.6637
vn 0.1161 -0.2319 -0.9658
vn 1.0000 0.0000 0.0000
vn 0.1254 0.9285 -0.3496
vn -0.0990 0.7502 0.6538
vn -0.1010 0.5656 0.8185
vn -0.1809 -0.3370 0.9240
vn -0.1365 -0.5603 0.8169
vn -0.9984 -0.0537 0.0183
vn 0.0000 1.0000 0.0000
vn -0.0767 0.7666 0.6375
vn 0.0362 0.7550 -0.6547
vn 0.0363 -0.8354 -0.5484
vn -0.0536 -0.7612 0.6463
vn 0.0000 -1.0000 0.0000
vn 0.0913 -0.9035 -0.4189
vn -0.0780 0.9930 0.0889
vn -0.5983 0.7864 -0.1535
vn 0.3052 0.5864 -0.7503
vn -0.5628 -0.2792 0.7780
vn 0.0989 -0.8044 0.5859
vn 0.7359 -0.6657 -0.1240
vn 0.5248 0.6059 0.5979
vn 0.8184 0.5643 0.1090
vn 0.7959 0.5694 -0.2060
vn 0.8876 0.3961 -0.2352
vn 0.9126 0.3991 0.0887
vn 0.5781 0.4616 0.6728
vn -0.6250 0.7757 0.0880
vn -0.6762 0.7363 0.0222
vn -0.6315 0.7164 0.2966
vn -0.4734 0.8568 -0.2044
vn -0.3515 0.8647 -0.3588
vn -0.2759 0.4542 -0.8471
vn -0.7430 0.4307 -0.5123
vn -0.8594 0.5111 0.0118
vn -0.7609 0.4654 0.4521
vn 0.8862 0.2025 -0.4167
vn 0.5984 0.8003 0.0385
vn 0.5911 0.2583 0.7641
vn 0.4917 0.4673 0.7348
vn -0.3055 0.4186 0.8552
vn -0.0424 0.4433 0.8954
vn -0.6927 0.6905 -0.2082
vn -0.8972 0.3383 -0.2838
vn -0.5062 0.3536 -0.7866
vn -0.3930 0.7863 -0.4768
vn 0.8427 0.3270 0.4276
vn 0.1605 0.2040 0.9657
vn -0.2682 0.2672 0.9256
vn -0.1862 0.2348 0.9540
vn -0.8733 0.4798 0.0850
vn 0.3101 0.4769 -0.8224
vn 0.0234 0.8561 -0.5162
vn -0.0254 0.3317 -0.9431
vn -0.3860 0.3310 -0.8611
vn -0.9703 0.0420 -0.2380
vn -0.2363 0.6715 -0.7024
vn 0.7787 0.6049 -0.1666
vn 0.8466 0.4410 -0.2979
vn -0.7079 0.6772 -0.2005
vn -0.6266 0.6754 0.3888
vn -0.7454 0.3253 0.5819
vn -0.8429 0.2454 0.4788
vn -0.3163 0.3233 0.8919
vn -0.5625 0.4286 0.7070
vn 0.8495 0.5226 -0.0722
vn 0.6487 0.7610 -0.0095
vn 0.4607 0.8869 -0.0328
vn 0.6212 0.5249 -0.5820
vn 0.7572 0.5445 0.3608
vn 0.0320 0.9988 0.0364
vn 0.1553 0.9675 0.1996
vn -0.3639 0.3637 -0.8575
vn -0.9261 0.3361 -0.1716
vn 0.0611 0.9796 -0.1916
vn -0.2288 0.2842 0.9311
vn 0.5483 0.3118 0.7760
vn -0.0224 0.3917 0.9198
vn 0.5725 0.8046 0.1577
vn 0.3284 0.8527 0.4062
vn 0.7959 0.5500 0.2532
vn 0.2208 0.4483 0.8662
vn 0.4934 0.5347 -0.6861
vn 0.3451 0.7523 -0.5612
vn -0.2574 0.8723 0.4156
vn -0.2590 0.8713 0.4169
vn 0.1423 0.6512 -0.7455
vn -0.3065 0.8904 0.3365
vn -0.8235 0.3553 0.4423
vn 0.0581 0.4669 -0.8824
vn -0.4564 0.3729 0.8078
usemtl Material.001
s off
f 1/1/1 3/2/1 4/3/1 2/4/1
f 9/5/2 3/6/2 1/7/2 8/8/2 11/9/2 10/10/2
f 3/11/3 9/12/3 4/13/3
f 5/14/4 9/12/4 10/15/4
f 5/14/5 4/13/5 9/12/5
f 6/16/6 2/17/6 4/18/6 5/19/6 7/20/6
f 11/21/7 7/22/7 5/23/7 10/24/7
f 11/25/8 8/26/8 7/27/8
f 7/27/9 8/26/9 6/28/9
f 8/26/10 1/29/10 6/28/10
f 2/4/11 6/30/11 1/1/11
f 19/31/12 18/32/12 20/33/12 17/34/12
f 14/35/13 17/36/13 15/37/13
f 16/38/14 15/39/14 17/40/14 20/41/14
f 12/42/15 19/43/15 17/36/15 14/35/15
f 13/44/16 18/45/16 19/46/16 12/47/16
f 18/45/17 13/44/17 16/48/17 20/49/17
f 12/50/6 14/51/6 15/52/6 16/53/6 13/54/6
f 24/55/18 21/56/18 25/57/18
f 22/58/19 23/59/19 25/57/19 21/56/19
f 27/60/20 28/61/20 26/62/20 29/63/20 30/64/20
f 22/65/21 21/66/21 30/67/21 29/68/21
f 23/69/22 22/65/22 29/68/22 26/70/22
f 21/71/23 24/72/23 27/73/23 30/74/23
f 24/55/24 25/57/24 28/61/24 27/60/24
f 25/57/25 23/59/25 26/62/25 28/61/25
f 39/75/18 37/76/18 36/77/18 38/78/18 65/79/18 40/80/18
f 32/81/18 31/82/18 68/83/18 35/84/18 34/85/18
f 67/86/18 33/87/18 32/81/18 34/85/18
f 53/88/18 54/89/18 55/90/18 56/91/18 57/92/18 52/93/18
f 60/94/18 61/95/18 62/96/18 63/97/18 64/98/18 58/99/18 59/100/18
f 48/101/18 66/102/18 49/103/18 50/104/18 51/105/18
f 43/106/18 44/107/18 47/108/18 46/109/18 45/110/18 41/111/18 42/112/18
f 112/113/26 114/114/26 111/115/26
f 114/116/27 112/117/27 113/118/27 115/119/27
f 115/119/28 113/118/28 107/120/28 116/121/28
f 59/122/29 58/123/29 107/120/29 113/118/29
f 60/124/30 59/122/30 113/118/30 112/117/30
f 60/125/31 112/113/31 111/115/31 61/126/31
f 114/127/32 115/128/32 110/129/32
f 115/128/33 109/130/33 110/129/33
f 114/127/34 110/129/34 111/131/34
f 116/132/35 109/130/35 115/128/35
f 116/132/36 107/133/36 108/134/36 109/130/36
f 58/135/37 64/136/37 108/137/37 107/138/37
f 63/139/38 109/140/38 108/141/38 64/142/38
f 62/143/39 110/144/39 109/140/39 63/139/39
f 62/145/40 61/126/40 111/115/40 110/146/40
f 50/147/41 70/148/41 69/149/41 51/150/41
f 75/151/42 69/152/42 70/153/42
f 73/154/43 48/155/43 51/156/43 69/157/43
f 74/158/44 73/154/44 69/157/44 75/159/44
f 48/155/45 73/154/45 72/160/45 66/161/45
f 74/158/46 72/160/46 73/154/46
f 71/162/47 72/163/47 74/164/47
f 49/165/48 66/166/48 72/167/48 71/168/48
f 49/165/49 71/168/49 70/169/49 50/170/49
f 74/164/50 75/151/50 70/153/50 71/162/50
f 44/171/51 82/172/51 81/173/51 47/174/51
f 81/175/52 80/176/52 46/177/52 47/178/52
f 80/176/53 78/179/53 45/180/53 46/177/53
f 78/179/54 77/181/54 41/182/54 45/180/54
f 77/183/55 76/184/55 42/185/55 41/186/55
f 79/187/56 43/188/56 42/189/56 76/190/56
f 81/191/57 82/192/57 79/193/57 76/194/57 77/195/57 78/196/57 80/197/57
f 43/188/58 79/187/58 82/198/58 44/199/58
f 87/200/59 88/201/59 38/202/59 36/203/59
f 85/204/60 87/205/60 36/206/60 37/207/60
f 88/208/61 87/209/61 89/210/61
f 88/211/62 89/212/62 86/213/62
f 38/214/63 88/211/63 86/213/63 65/215/63
f 89/210/64 87/209/64 85/216/64 90/217/64
f 91/218/65 90/217/65 85/216/65
f 85/204/66 84/219/66 91/220/66
f 39/221/67 84/219/67 85/204/67 37/207/67
f 83/222/68 84/223/68 39/224/68 40/225/68
f 84/223/69 83/222/69 91/226/69
f 65/215/70 86/213/70 83/227/70 40/228/70
f 89/212/71 90/229/71 91/230/71 83/227/71 86/213/71
f 93/231/72 94/232/72 92/233/72
f 34/234/73 94/235/73 93/236/73 67/237/73
f 67/237/74 93/236/74 92/238/74 33/239/74
f 95/240/75 92/233/75 94/232/75
f 98/241/76 95/240/76 94/232/76
f 34/242/77 35/243/77 98/244/77 94/245/77
f 97/246/78 98/247/78 35/248/78 68/249/78
f 98/241/79 97/250/79 96/251/79 95/240/79
f 68/252/80 31/253/80 96/254/80 97/255/80
f 32/256/81 95/257/81 96/254/81 31/253/81
f 32/256/82 33/258/82 92/259/82 95/257/82
f 104/260/83 105/261/83 103/262/83
f 105/261/84 102/263/84 103/262/84
f 54/264/85 104/265/85 103/266/85 55/267/85
f 56/268/86 55/269/86 103/270/86 102/271/86
f 101/272/87 104/265/87 54/264/87 53/273/87
f 105/274/88 104/275/88 101/276/88 106/277/88
f 106/277/89 100/278/89 102/279/89
f 105/274/90 106/277/90 102/279/90
f 106/277/91 101/276/91 99/280/91
f 106/277/92 99/280/92 100/278/92
f 52/281/93 57/282/93 100/283/93 99/284/93
f 53/285/94 52/286/94 99/287/94 101/288/94
f 57/289/95 56/268/95 102/271/95 100/290/95
l 2 3
l 16 18
l 108 116
l 86 91
