# Blender v3.0.1 OBJ File: 'arrow_1.blend'
# www.blender.org
mtllib arrow_1.mtl
o Plane
v -0.664276 1.174831 0.363124
v 0.647175 1.186503 0.357740
v -0.664276 0.486305 -1.129421
v 0.647175 0.497978 -1.134806
v 0.059501 2.913912 -0.439130
v -0.118994 2.912111 -0.438299
v 0.002558 2.943004 -0.452550
v -0.062776 2.942345 -0.452246
v -0.118994 2.223586 -1.930845
v 0.059501 2.225387 -1.931676
v -0.062776 2.253819 -1.944792
v 0.002558 2.254479 -1.945096
v -1.905073 1.253844 0.326675
v -1.861042 1.160537 0.369718
v -1.936648 1.206550 0.348492
v -1.920532 1.172397 0.364247
v 1.843974 1.197741 0.352556
v 1.885709 1.292083 0.309035
v 1.903158 1.210884 0.346493
v 1.918434 1.245415 0.330563
v -1.861042 0.472011 -1.122828
v -1.905073 0.565319 -1.165871
v -1.920532 0.483872 -1.128299
v -1.936648 0.518025 -1.144054
v 1.885709 0.603558 -1.183511
v 1.843974 0.509216 -1.139990
v 1.918434 0.556890 -1.161983
v 1.903158 0.522358 -1.146053
v -1.151508 -2.032737 1.745060
v -1.078966 -2.108582 1.777714
v -1.146048 -2.070933 1.761514
v -1.119496 -2.098695 1.773466
v 1.131840 -2.088906 1.768637
v 1.202751 -2.011785 1.735395
v 1.172151 -2.078300 1.764057
v 1.198106 -2.050071 1.751890
v -1.078966 -2.720974 0.450205
v -1.151508 -2.646905 0.413702
v -1.119496 -2.711325 0.445441
v -1.146048 -2.684214 0.432080
v 1.202751 -2.625952 0.404036
v 1.131840 -2.701298 0.441128
v 1.198106 -2.663351 0.422456
v 1.172151 -2.690930 0.436032
vt 0.000000 0.000000
vt 0.000000 0.000000
vt 0.000000 0.000000
vt 0.000000 0.000000
vt 0.000000 0.000000
vt 0.000000 0.000000
vt 0.000000 0.000000
vt 0.000000 0.000000
vt 0.000000 0.000000
vt 0.000000 0.000000
vt 0.000000 0.000000
vt 0.000000 0.000000
vt 0.000000 0.000000
vt 0.000000 0.000000
vt 0.964619 0.000000
vt 0.035381 0.000000
vt 0.000000 0.000000
vt 0.000000 0.000000
vt 0.109006 0.109006
vt 1.000000 1.000000
vt 0.000000 0.000000
vt 0.000000 0.000000
vt 0.000000 0.000000
vt 0.000000 0.000000
vt 0.000000 0.023322
vt 0.001721 0.011966
vt 0.018328 0.001042
vt 0.981802 0.001042
vt 0.998260 0.011966
vt 1.000000 0.023322
vt 0.000000 1.000000
vt 0.000000 0.000000
vt 0.000000 0.000000
vt 0.000000 0.000000
vt 0.000000 0.000000
vt 0.000000 0.000000
vt 0.000000 0.000000
vt 0.000696 0.001377
vt 0.000680 0.001377
vt 0.000009 0.004253
vt 0.000002 0.060791
vt 0.000000 0.109005
vt 0.060780 0.060782
vt 0.004243 0.004253
vt -0.000150 0.000000
vn -0.0000 -0.4189 -0.9080
vn 0.0098 -0.9080 0.4189
vn 0.0103 -0.9080 0.4189
vn 0.6992 0.6492 -0.2995
vn -0.7149 0.6349 -0.2929
vn 0.0002 0.3956 0.9184
vn 0.9875 0.1431 -0.0660
vn 0.0002 -0.4419 -0.8971
vn 0.4904 0.7914 -0.3651
vn -0.0111 0.9080 -0.4189
vn -0.5096 0.7813 -0.3604
vn 0.0000 0.4189 0.9080
vn -0.8551 0.4707 -0.2172
vn -0.9192 -0.3576 0.1650
vn -0.2145 -0.8869 0.4091
vn 0.2376 -0.8820 0.4069
vn 0.9279 -0.3385 0.1561
vn 0.8435 0.4877 -0.2250
vn 0.0132 -0.9080 0.4189
vn -0.9915 -0.1182 0.0545
vn -0.7512 -0.5994 0.2765
vn -0.2565 -0.8776 0.4049
vn 0.2754 -0.8729 0.4027
vn 0.7640 -0.5859 0.2703
vn 0.9938 -0.1006 0.0464
vn -0.9904 0.1255 -0.0579
usemtl None
s off
f 10/1/1 25/2/1 27/3/1 28/4/1 26/5/1 4/6/1 3/7/1 21/8/1 23/9/1 24/10/1 22/11/1 9/12/1 11/13/1 12/14/1
f 33/15/2 30/16/2 37/17/2 42/18/2
f 17/19/3 2/20/3 4/6/3 26/5/3
f 5/21/4 18/22/4 25/2/4 10/1/4
f 13/23/5 6/24/5 9/12/5 22/11/5
f 29/25/6 31/26/6 32/27/6 30/16/6 33/15/6 35/28/6 36/29/6 34/30/6 2/20/6 1/31/6
f 2/20/7 34/30/7 41/32/7 4/6/7
f 38/33/8 3/7/8 4/6/8 41/32/8 43/34/8 44/35/8 42/18/8 37/17/8 39/36/8 40/37/8
f 5/21/9 10/1/9 12/14/9 7/38/9
f 7/38/10 12/14/10 11/13/10 8/39/10
f 8/39/11 11/13/11 9/12/11 6/24/11
f 13/23/12 15/40/12 16/41/12 14/42/12 1/31/12 2/20/12 17/19/12 19/43/12 20/44/12 18/22/12 5/21/12 7/38/12 8/39/12 6/24/12
f 13/23/13 22/11/13 24/10/13 15/40/13
f 15/40/14 24/10/14 23/9/14 16/41/14
f 16/41/15 23/9/15 21/8/15 14/42/15
f 17/19/16 26/5/16 28/4/16 19/43/16
f 19/43/17 28/4/17 27/3/17 20/44/17
f 20/44/18 27/3/18 25/2/18 18/22/18
f 1/31/19 14/42/19 21/8/19 3/7/19
f 29/25/20 38/33/20 40/37/20 31/26/20
f 31/26/21 40/37/21 39/36/21 32/27/21
f 32/27/22 39/36/22 37/17/22 30/16/22
f 33/15/23 42/18/23 44/45/23 35/28/23
f 35/28/24 44/45/24 43/34/24 36/29/24
f 36/29/25 43/34/25 41/32/25 34/30/25
f 29/25/26 1/31/26 3/7/26 38/33/26
