# Blender v3.0.1 OBJ File: 'arrow_1.blend'
# www.blender.org
mtllib arrow_1.mtl
o Plane
v -0.664276 0.914684 0.821852
v 0.647175 0.927538 0.821852
v -0.664276 0.914684 -0.821851
v 0.647175 0.927538 -0.821851
v 0.059501 2.829890 0.821852
v -0.118994 2.827907 0.821852
v 0.002558 2.861928 0.821852
v -0.062776 2.861203 0.821852
v -0.118994 2.827907 -0.821851
v 0.059501 2.829890 -0.821851
v -0.062776 2.861203 -0.821851
v 0.002558 2.861928 -0.821851
v -1.905073 1.001699 0.821852
v -1.861042 0.898942 0.821852
v -1.936648 0.949616 0.821852
v -1.920532 0.912004 0.821852
v 1.843974 0.939914 0.821852
v 1.885709 1.043811 0.821852
v 1.903158 0.954388 0.821852
v 1.918434 0.992417 0.821852
v -1.861042 0.898942 -0.821851
v -1.905073 1.001699 -0.821851
v -1.920532 0.912004 -0.821851
v -1.936648 0.949616 -0.821851
v 1.885709 1.043811 -0.821851
v 1.843974 0.939914 -0.821851
v 1.918434 0.992417 -0.821851
v 1.903158 0.954388 -0.821851
v -1.151509 -2.576786 0.733096
v -1.078966 -2.659334 0.730976
v -1.146048 -2.618362 0.732036
v -1.119496 -2.648577 0.731260
v 1.131840 -2.637666 0.730976
v 1.202750 -2.553712 0.733096
v 1.172151 -2.626116 0.731260
v 1.198106 -2.595387 0.732036
v -1.078966 -2.659334 -0.730976
v -1.151509 -2.576786 -0.733096
v -1.119496 -2.648577 -0.731260
v -1.146048 -2.618362 -0.732036
v 1.202750 -2.553712 -0.733096
v 1.131840 -2.637666 -0.730976
v 1.198106 -2.595387 -0.732036
v 1.172151 -2.626116 -0.731260
vt 0.000000 0.000000
vt 0.000000 0.000000
vt 0.000000 0.000000
vt 0.000000 0.000000
vt 0.000000 0.000000
vt 0.000000 0.000000
vt 0.000000 0.000000
vt 0.000000 0.000000
vt 0.000000 0.000000
vt 0.000000 0.000000
vt 0.000000 0.000000
vt 0.000000 0.000000
vt 0.000000 0.000000
vt 0.000000 0.000000
vt 0.964619 0.000000
vt 0.035381 0.000000
vt 0.000000 0.000000
vt 0.000000 0.000000
vt 0.109006 0.109006
vt 1.000000 1.000000
vt 0.000000 0.000000
vt 0.000000 0.000000
vt 0.000000 0.000000
vt 0.000000 0.000000
vt 0.000000 0.023322
vt 0.001721 0.011966
vt 0.018328 0.001042
vt 0.981802 0.001042
vt 0.998260 0.011966
vt 1.000000 0.023322
vt 0.000000 1.000000
vt 0.000000 0.000000
vt 0.000000 0.000000
vt 0.000000 0.000000
vt 0.000000 0.000000
vt 0.000000 0.000000
vt 0.000000 0.000000
vt 0.000696 0.001377
vt 0.000680 0.001377
vt 0.000009 0.004253
vt 0.000002 0.060791
vt 0.000000 0.109005
vt 0.060780 0.060782
vt 0.004243 0.004253
vt -0.000150 0.000000
vn -0.0000 0.0000 -1.0000
vn 0.0098 -1.0000 0.0000
vn 0.0103 -0.9999 0.0000
vn 0.6992 0.7149 0.0000
vn -0.7149 0.6992 0.0000
vn 0.0002 -0.0254 0.9997
vn 0.9875 0.1576 0.0000
vn 0.0002 -0.0254 -0.9997
vn 0.4904 0.8715 0.0000
vn -0.0111 0.9999 0.0000
vn -0.5096 0.8604 0.0000
vn -0.0000 -0.0000 1.0000
vn -0.8551 0.5184 0.0000
vn -0.9192 -0.3939 0.0000
vn -0.2145 -0.9767 0.0000
vn 0.2376 -0.9714 0.0000
vn 0.9279 -0.3728 0.0000
vn 0.8435 0.5371 0.0000
vn 0.0132 -0.9999 0.0000
vn -0.9915 -0.1302 0.0000
vn -0.7512 -0.6601 0.0000
vn -0.2565 -0.9665 0.0000
vn 0.2754 -0.9613 0.0000
vn 0.7640 -0.6453 0.0000
vn 0.9938 -0.1108 0.0000
vn -0.9904 0.1382 0.0000
usemtl None
s off
f 10/1/1 25/2/1 27/3/1 28/4/1 26/5/1 4/6/1 3/7/1 21/8/1 23/9/1 24/10/1 22/11/1 9/12/1 11/13/1 12/14/1
f 33/15/2 30/16/2 37/17/2 42/18/2
f 17/19/3 2/20/3 4/6/3 26/5/3
f 5/21/4 18/22/4 25/2/4 10/1/4
f 13/23/5 6/24/5 9/12/5 22/11/5
f 29/25/6 31/26/6 32/27/6 30/16/6 33/15/6 35/28/6 36/29/6 34/30/6 2/20/6 1/31/6
f 2/20/7 34/30/7 41/32/7 4/6/7
f 38/33/8 3/7/8 4/6/8 41/32/8 43/34/8 44/35/8 42/18/8 37/17/8 39/36/8 40/37/8
f 5/21/9 10/1/9 12/14/9 7/38/9
f 7/38/10 12/14/10 11/13/10 8/39/10
f 8/39/11 11/13/11 9/12/11 6/24/11
f 13/23/12 15/40/12 16/41/12 14/42/12 1/31/12 2/20/12 17/19/12 19/43/12 20/44/12 18/22/12 5/21/12 7/38/12 8/39/12 6/24/12
f 13/23/13 22/11/13 24/10/13 15/40/13
f 15/40/14 24/10/14 23/9/14 16/41/14
f 16/41/15 23/9/15 21/8/15 14/42/15
f 17/19/16 26/5/16 28/4/16 19/43/16
f 19/43/17 28/4/17 27/3/17 20/44/17
f 20/44/18 27/3/18 25/2/18 18/22/18
f 1/31/19 14/42/19 21/8/19 3/7/19
f 29/25/20 38/33/20 40/37/20 31/26/20
f 31/26/21 40/37/21 39/36/21 32/27/21
f 32/27/22 39/36/22 37/17/22 30/16/22
f 33/15/23 42/18/23 44/45/23 35/28/23
f 35/28/24 44/45/24 43/34/24 36/29/24
f 36/29/25 43/34/25 41/32/25 34/30/25
f 29/25/26 1/31/26 3/7/26 38/33/26
