# Blender v3.0.1 OBJ File: ''
# www.blender.org
mtllib waterSeperated.mtl
g Water.001_Scene.014
v -6722.437012 -0.000431 3053.630371
v -6722.437012 -0.000664 4479.718262
v -6130.469238 -0.000664 4479.718262
v -5420.107910 -0.000431 3053.630371
v -5420.107910 -0.000664 4479.718262
vt -0.000000 0.175000
vt 0.137500 0.000000
vt 0.137500 0.175000
vt 0.062500 0.000000
vt 0.000000 0.000000
vn 0.0000 1.0000 0.0000
usemtl Default_Material
s 1
f 1/1/1 5/2/1 4/3/1
f 3/4/1 5/2/1 1/1/1
f 2/5/1 3/4/1 1/1/1
g Water.002_Scene.015
v -3999.385742 -0.000664 4479.718262
v -4748.132324 -0.000534 3683.512207
v -5420.107910 -0.000431 3053.630371
v -5420.107910 -0.000664 4479.718262
v -3999.385742 -0.000431 3053.630371
vt 0.208447 0.097705
vt 0.287500 0.175000
vt 0.137500 0.175000
vt 0.287500 0.000000
vt 0.137500 0.000000
vn 0.0000 1.0000 0.0000
usemtl Default_Material
s 1
f 7/6/2 10/7/2 8/8/2
f 6/9/2 10/7/2 7/6/2
f 8/8/2 9/10/2 7/6/2
f 9/10/2 6/9/2 7/6/2
g Water.003_Scene.016
v -2578.663086 -0.000664 4479.718262
v -3500.837646 -0.000592 4039.636475
v -3999.385742 -0.000664 4479.718262
v -2578.663086 -0.000431 3053.630371
v -3999.385742 -0.000431 3053.630371
vt 0.340137 0.054004
vt 0.437500 0.175000
vt 0.287500 0.175000
vt 0.287500 0.000000
vt 0.437500 0.000000
vn 0.0000 1.0000 0.0000
usemtl Default_Material
s 1
f 12/11/3 14/12/3 15/13/3
f 13/14/3 12/11/3 15/13/3
f 12/11/3 11/15/3 14/12/3
f 13/14/3 11/15/3 12/11/3
g Water.004_Scene.017
v -1039.546875 -0.000664 4479.718262
v -1039.546875 -0.000521 3601.146240
v -1039.546875 -0.000431 3053.630371
v -1217.137207 -0.000431 3053.630371
v -2578.663086 -0.000664 4479.718262
v -2578.663086 -0.000431 3053.630371
vt 0.437500 0.000000
vt 0.600000 0.175000
vt 0.581250 0.175000
vt 0.437500 0.175000
vt 0.600000 0.107812
vt 0.600000 0.000000
vn 0.0000 1.0000 0.0000
usemtl Default_Material
s 1
f 20/16/4 18/17/4 19/18/4
f 21/19/4 20/16/4 19/18/4
f 20/16/4 17/20/4 18/17/4
f 20/16/4 16/21/4 17/20/4
g Water.005_Scene.018
v -1039.546875 -0.000664 4479.718262
v -97.485962 -0.000530 3655.261230
v -1039.546875 -0.000541 3728.475586
v 617.962524 -0.000431 3053.630371
v -1039.546875 -0.000431 3053.630371
v 617.962524 -0.000664 4479.718262
vt 0.600000 0.175000
vt 0.699463 0.101172
vt 0.775000 0.175000
vt 0.775000 0.000000
vt 0.600000 0.092188
vt 0.600000 0.000000
vn 0.0000 1.0000 0.0000
usemtl Default_Material
s 1
f 26/22/5 23/23/5 25/24/5
f 23/23/5 27/25/5 25/24/5
f 24/26/5 23/23/5 26/22/5
f 24/26/5 22/27/5 23/23/5
f 22/27/5 27/25/5 23/23/5
g Water.006_Scene.019
v 1920.291382 -0.000664 4479.718262
v 1920.291382 -0.000517 3575.680420
v 1920.291382 -0.000431 3053.630371
v 617.962524 -0.000431 3053.630371
v 617.962524 -0.000664 4479.718262
vt 0.775000 0.000000
vt 0.912500 0.110938
vt 0.912500 0.175000
vt 0.775000 0.175000
vt 0.912500 0.000000
vn 0.0000 1.0000 0.0000
usemtl Default_Material
s 1
f 32/28/6 29/29/6 30/30/6
f 31/31/6 32/28/6 30/30/6
f 32/28/6 28/32/6 29/29/6
g Water.007_Scene.020
v 1920.291382 -0.000664 4479.718262
v 1920.291382 -0.000431 3053.630371
v 2749.046387 -0.000431 3053.630371
v 2749.046387 -0.000664 4479.718262
vt 0.912500 0.000000
vt 1.000000 0.175000
vt 0.912500 0.175000
vt 1.000000 0.000000
vn 0.0000 1.0000 0.0000
usemtl Default_Material
s 1
f 33/33/7 35/34/7 34/35/7
f 33/33/7 36/36/7 35/34/7
g Water.008_Scene.021
v -6722.437012 -0.000199 1627.542358
v -6722.437012 -0.000431 3053.630371
v -5420.107910 -0.000431 3053.630371
v -5420.107910 -0.000199 1627.542358
v -5420.107910 -0.000199 1627.542358
v -5420.107910 -0.000307 2289.654541
vt -0.000000 0.350000
vt 0.137500 0.268750
vt 0.121875 0.334375
vt 0.137500 0.175000
vt 0.000000 0.175000
vn 0.0000 1.0000 0.0000
usemtl Default_Material
s 1
f 37/37/8 42/38/8 40/39/8
f 39/40/8 42/38/8 37/37/8
f 38/41/8 39/40/8 37/37/8
l 40 41
g Water.009_Scene.022
v -6722.437012 0.000050 99.591034
v -6722.437012 0.000050 99.591034
v -5420.107910 0.000050 99.591034
v -6722.437012 -0.000199 1627.542358
v -5420.107910 -0.000199 1627.542358
v -5420.107910 -0.000104 1041.827637
vt 0.013787 0.529228
vt 0.000000 0.350000
vt 0.137500 0.537500
vt 0.137500 0.421875
vt 0.137500 0.350000
vn 0.0000 1.0000 0.0000
usemtl Default_Material
s 1
f 44/42/9 46/43/9 45/44/9
f 46/43/9 48/45/9 45/44/9
f 47/46/9 48/45/9 46/43/9
l 43 44
g Water.010_Scene.023
v -6722.437012 0.000266 -1224.633179
v -6189.666016 0.000266 -1224.633179
v -5420.107910 0.000266 -1224.633179
v -5420.107910 0.000050 99.591034
v -6722.437012 0.000050 99.591034
vt 0.137500 0.537500
vt 0.137500 0.700000
vt 0.056250 0.700000
vt 0.000000 0.700000
vt 0.000000 0.537500
vn 0.0000 1.0000 0.0000
usemtl Default_Material
s 1
f 52/47/10 51/48/10 50/49/10
f 49/50/10 52/47/10 50/49/10
f 53/51/10 52/47/10 49/50/10
g Water.011_Scene.024
v -5814.752930 0.000465 -2446.994629
v -5420.107910 0.000465 -2446.994385
v -6722.437012 0.000465 -2446.994629
v -6722.437012 0.000266 -1224.633179
v -5420.107910 0.000266 -1224.633179
vt 0.000000 0.850000
vt -0.000000 0.700000
vt 0.095833 0.850000
vt 0.137500 0.850000
vt 0.137500 0.700000
vn 0.0000 1.0000 0.0000
usemtl Default_Material
s 1
f 56/52/11 57/53/11 54/54/11
f 57/53/11 55/55/11 54/54/11
f 57/53/11 58/56/11 55/55/11
g Water.012_Scene.025
v -5420.107910 0.000664 -3669.355469
v -5775.288574 0.000465 -2446.994629
v -5420.107910 0.000465 -2446.994385
v -6722.437012 0.000465 -2446.994629
v -6722.437012 0.000664 -3669.355469
vt 0.000000 1.000000
vt 0.104319 0.852168
vt 0.137500 1.000000
vt 0.137500 0.850000
vt 0.000000 0.850000
vn 0.0000 1.0000 0.0000
usemtl Default_Material
s 1
f 63/57/12 60/58/12 59/59/12
f 60/58/12 61/60/12 59/59/12
f 62/61/12 60/58/12 63/57/12
g Water.013_Scene.026
v -5420.107910 -0.000199 1627.542358
v -3999.385742 -0.000199 1627.542358
v -3999.385742 -0.000276 2098.660645
v -5420.107910 -0.000431 3053.630371
v -3999.385742 -0.000431 3053.630371
vt 0.137500 0.350000
vt 0.287500 0.292188
vt 0.287500 0.350000
vt 0.287500 0.175000
vt 0.137500 0.175000
vn 0.0000 1.0000 0.0000
usemtl Default_Material
s 1
f 64/62/13 66/63/13 65/64/13
f 64/62/13 68/65/13 66/63/13
f 67/66/13 68/65/13 64/62/13
g Water.014_Scene.027
v -5420.107910 0.000050 99.591034
v -3999.385742 0.000050 99.591034
v -3999.385742 -0.000199 1627.542358
v -5420.107910 -0.000091 965.430054
v -5420.107910 -0.000199 1627.542358
v -5420.107910 -0.000199 1627.542358
v -4754.144531 -0.000199 1627.542358
vt 0.137500 0.431250
vt 0.287500 0.537500
vt 0.137500 0.537500
vt 0.146765 0.360809
vt 0.207812 0.350000
vt 0.287500 0.350000
vn -0.0000 1.0000 0.0000
usemtl Default_Material
s 1
f 72/67/14 70/68/14 69/69/14
f 73/70/14 70/68/14 72/67/14
f 70/68/14 75/71/14 71/72/14
f 73/70/14 75/71/14 70/68/14
l 73 74
g Water.015_Scene.028
v -3999.385742 0.000266 -1224.633179
v -5420.107910 0.000266 -1224.633179
v -5420.107910 0.000162 -587.987061
v -3999.385742 0.000050 99.591034
v -5420.107910 0.000050 99.591034
vt 0.137500 0.621875
vt 0.287500 0.700000
vt 0.137500 0.700000
vt 0.137500 0.537500
vt 0.287500 0.537500
vn -0.0000 1.0000 0.0000
usemtl Default_Material
s 1
f 78/73/15 76/74/15 77/75/15
f 80/76/15 79/77/15 76/74/15
f 78/73/15 80/76/15 76/74/15
g Water.016_Scene.029
v -3999.385742 0.000465 -2446.994385
v -4828.140625 0.000465 -2446.994385
v -5420.107910 0.000266 -1224.633179
v -5420.107910 0.000465 -2446.994385
v -3999.385742 0.000266 -1224.633179
vt 0.137500 0.850000
vt 0.287500 0.700000
vt 0.201116 0.850000
vt 0.287500 0.850000
vt 0.137500 0.700000
vn 0.0000 1.0000 0.0000
usemtl Default_Material
s 1
f 84/78/16 85/79/16 82/80/16
f 85/79/16 81/81/16 82/80/16
f 84/78/16 83/82/16 85/79/16
g Water.017_Scene.030
v -3999.385742 0.000664 -3669.355469
v -3999.385742 0.000465 -2446.994385
v -4828.140625 0.000465 -2446.994385
v -5420.107910 0.000664 -3669.355469
v -5420.107910 0.000465 -2446.994385
vt 0.137500 1.000000
vt 0.287500 0.850000
vt 0.287500 1.000000
vt 0.137500 0.850000
vt 0.200223 0.849554
vn 0.0000 1.0000 0.0000
usemtl Default_Material
s 1
f 89/83/17 87/84/17 86/85/17
f 90/86/17 88/87/17 89/83/17
f 89/83/17 88/87/17 87/84/17
g Water.018_Scene.031
v -2933.843750 0.000465 -2446.994385
v -2697.056641 0.000465 -2446.994385
v -3999.385742 0.000664 -3669.355469
v -2697.056641 0.000664 -3669.355469
v -3999.385742 0.000465 -2446.994385
vt 0.287500 0.850000
vt 0.425000 1.000000
vt 0.287500 1.000000
vt 0.400521 0.850000
vt 0.425000 0.850000
vn 0.0000 1.0000 0.0000
usemtl Default_Material
s 1
f 95/88/18 94/89/18 93/90/18
f 91/91/18 92/92/18 94/89/18
f 95/88/18 91/91/18 94/89/18
g Water.019_Scene.032
v -1276.333984 0.000465 -2446.994385
v -1986.695435 0.000465 -2446.994385
v -1276.333984 0.000664 -3669.355469
v -2697.056641 0.000664 -3669.355469
v -2697.056641 0.000465 -2446.994385
vt 0.425000 1.000000
vt 0.575000 0.850000
vt 0.575000 1.000000
vt 0.500000 0.850000
vt 0.425000 0.850000
vn 0.0000 1.0000 0.0000
usemtl Default_Material
s 1
f 99/93/19 96/94/19 98/95/19
f 99/93/19 97/96/19 96/94/19
f 100/97/19 97/96/19 99/93/19
g Water.020_Scene.033
v 25.994751 0.000664 -3669.355469
v 25.994751 0.000465 -2446.994385
v -1039.546875 0.000465 -2446.994385
v -1276.333984 0.000465 -2446.994385
v -1276.333984 0.000664 -3669.355469
vt 0.575000 1.000000
vt 0.712500 0.850000
vt 0.712500 1.000000
vt 0.600000 0.850000
vt 0.575000 0.850000
vn 0.0000 1.0000 0.0000
usemtl Default_Material
s 1
f 105/98/20 102/99/20 101/100/20
f 105/98/20 103/101/20 102/99/20
f 105/98/20 104/102/20 103/101/20
g Water.021_Scene.034
v 1328.324097 0.000465 -2446.994385
v 854.749634 0.000465 -2446.994385
v 1328.324097 0.000664 -3669.355469
v 25.994751 0.000465 -2446.994385
v 25.994751 0.000664 -3669.355469
vt 0.712500 1.000000
vt 0.850000 0.850000
vt 0.850000 1.000000
vt 0.712500 0.850000
vt 0.800000 0.850000
vn 0.0000 1.0000 0.0000
usemtl Default_Material
s 1
f 110/103/21 106/104/21 108/105/21
f 109/106/21 107/107/21 110/103/21
f 110/103/21 107/107/21 106/104/21
g Water.022_Scene.035
v 1328.324097 0.000664 -3669.355469
v 2749.046387 0.000465 -2446.994385
v 1801.898315 0.000465 -2446.994385
v 2749.046387 0.000664 -3669.355469
v 1328.324097 0.000465 -2446.994385
vt 0.850000 1.000000
vt 1.000000 0.850000
vt 1.000000 1.000000
vt 0.900000 0.850000
vt 0.850000 0.850000
vn 0.0000 1.0000 0.0000
usemtl Default_Material
s 1
f 111/108/22 112/109/22 114/110/22
f 111/108/22 113/111/22 112/109/22
f 115/112/22 113/111/22 111/108/22
g Water.023_Scene.036
v 2749.046387 0.000249 -1122.769897
v 2749.046387 0.000465 -2446.994629
v 2749.046387 0.000465 -2446.994385
v 1807.279907 0.000465 -2446.994385
v 1328.324097 0.000465 -2446.994385
v 1328.324097 0.000249 -1122.769897
v 1742.701782 0.000465 -2446.994385
vt 0.900568 0.850000
vt 1.000000 0.687500
vt 0.993969 0.848851
vt 0.893750 0.850000
vt 0.850000 0.850000
vt 0.850000 0.687500
vn 0.0000 1.0000 0.0000
usemtl Default_Material
s 1
f 119/113/23 116/114/23 118/115/23
f 122/116/23 116/114/23 119/113/23
f 120/117/23 116/114/23 122/116/23
f 121/118/23 116/114/23 120/117/23
l 117 118
g Water.024_Scene.037
v 2749.046387 0.000050 99.591034
v 2112.681152 0.000050 99.591034
v 1328.324097 0.000050 99.591034
v 2749.046387 0.000249 -1122.769897
v 1328.324097 0.000249 -1122.769897
vt 0.850000 0.687500
vt 1.000000 0.537500
vt 1.000000 0.687500
vt 0.932813 0.537500
vt 0.850000 0.537500
vn 0.0000 1.0000 0.0000
usemtl Default_Material
s 1
f 127/119/24 123/120/24 126/121/24
f 124/122/24 123/120/24 127/119/24
f 125/123/24 124/122/24 127/119/24
g Water.025_Scene.038
v 2749.046387 -0.000166 1423.815430
v 2749.046387 0.000050 99.591034
v 2749.046387 0.000050 99.591034
v 1328.324097 -0.000166 1423.815430
v 1801.898071 0.000050 99.591034
v 1328.324097 0.000050 99.591034
vt 0.900000 0.537500
vt 0.850000 0.375000
vt 0.984375 0.521875
vt 0.850000 0.537500
vt 1.000000 0.375000
vn 0.0000 1.0000 0.0000
usemtl Default_Material
s 1
f 132/124/25 131/125/25 129/126/25
f 133/127/25 131/125/25 132/124/25
f 131/125/25 128/128/25 129/126/25
l 130 129
g Water.026_Scene.039
v 2749.046387 -0.000431 3053.630371
v 2749.046387 -0.000285 2155.958984
v 2059.727539 -0.000275 2091.100586
v 1328.324097 -0.000431 3053.630371
v 2749.046387 -0.000166 1423.815430
v 1328.324097 -0.000166 1423.815430
vt 0.927222 0.293115
vt 1.000000 0.375000
vt 0.850000 0.375000
vt 1.000000 0.285156
vt 0.850000 0.175000
vt 1.000000 0.175000
vn -0.0000 1.0000 0.0000
usemtl Default_Material
s 1
f 136/129/26 138/130/26 139/131/26
f 136/129/26 135/132/26 138/130/26
f 137/133/26 136/129/26 139/131/26
f 134/134/26 135/132/26 136/129/26
f 137/133/26 134/134/26 136/129/26
g Water.027_Scene.040
v -2697.056641 0.000465 -2446.994385
v -2933.843750 0.000465 -2446.994385
v -2697.056641 0.000282 -1326.496704
v -3999.385742 0.000465 -2446.994385
v -3999.385742 0.000282 -1326.496704
vt 0.287500 0.850000
vt 0.287500 0.712500
vt 0.400544 0.850000
vt 0.425000 0.850000
vt 0.425000 0.712500
vn 0.0000 1.0000 0.0000
usemtl Default_Material
s 1
f 143/135/27 144/136/27 141/137/27
f 144/136/27 140/138/27 141/137/27
f 144/136/27 142/139/27 140/138/27
g Water.028_Scene.041
v -1276.333984 0.000282 -1326.496704
v -1276.333984 0.000465 -2446.994385
v -1986.695435 0.000465 -2446.994385
v -2697.056641 0.000465 -2446.994385
v -2697.056641 0.000282 -1326.496704
vt 0.500000 0.850000
vt 0.425000 0.712500
vt 0.575000 0.850000
vt 0.425000 0.850000
vt 0.575000 0.712500
vn 0.0000 1.0000 0.0000
usemtl Default_Material
s 1
f 147/140/28 149/141/28 146/142/28
f 148/143/28 149/141/28 147/140/28
f 145/144/28 146/142/28 149/141/28
g Water.029_Scene.042
v 25.994751 0.000465 -2446.994385
v 25.994751 0.000282 -1326.496704
v -1039.546875 0.000465 -2446.994385
v -1276.333984 0.000465 -2446.994385
v -1276.333984 0.000282 -1326.496704
vt 0.600000 0.850000
vt 0.712500 0.712500
vt 0.712500 0.850000
vt 0.575000 0.850000
vt 0.575000 0.712500
vn 0.0000 1.0000 0.0000
usemtl Default_Material
s 1
f 152/145/29 151/146/29 150/147/29
f 153/148/29 151/146/29 152/145/29
f 154/149/29 151/146/29 153/148/29
g Water.030_Scene.043
v 1328.324097 0.000282 -1326.496704
v 1328.324097 0.000465 -2446.994385
v 854.749634 0.000465 -2446.994385
v 25.994751 0.000282 -1326.496704
v 25.994751 0.000465 -2446.994385
vt 0.800000 0.850000
vt 0.850000 0.712500
vt 0.850000 0.850000
vt 0.712500 0.712500
vt 0.712500 0.850000
vn 0.0000 1.0000 0.0000
usemtl Default_Material
s 1
f 157/150/30 155/151/30 156/152/30
f 158/153/30 155/151/30 157/150/30
f 159/154/30 158/153/30 157/150/30
g Water.031_Scene.044
v 1328.324097 0.000017 303.317932
v 1121.134888 0.000017 303.317932
v 632.761597 0.000017 303.317932
v 144.388306 0.000017 303.317932
v 1328.324097 0.000282 -1326.496704
v 144.388306 0.000282 -1326.496704
vt 0.725000 0.712500
vt 0.850000 0.512500
vt 0.850000 0.712500
vt 0.828125 0.512500
vt 0.776563 0.512500
vt 0.725000 0.512500
vn 0.0000 1.0000 0.0000
usemtl Default_Material
s 1
f 165/155/31 160/156/31 164/157/31
f 161/158/31 160/156/31 165/155/31
f 162/159/31 161/158/31 165/155/31
f 163/160/31 162/159/31 165/155/31
g Water.032_Scene.045
v 1328.324097 -0.000216 1729.405762
v 144.388306 -0.000216 1729.405762
v 1328.324097 0.000017 303.317932
v 1328.324097 -0.000091 965.430054
v 1328.324097 0.000017 303.317932
v 144.388306 0.000017 303.317932
vt 0.725000 0.512500
vt 0.850000 0.431250
vt 0.840625 0.503125
vt 0.850000 0.337500
vt 0.725000 0.337500
vn -0.0000 1.0000 0.0000
usemtl Default_Material
s 1
f 171/161/32 169/162/32 168/163/32
f 171/161/32 166/164/32 169/162/32
f 167/165/32 166/164/32 171/161/32
l 170 168
g Water.033_Scene.046
v 1328.324097 -0.000431 3053.630371
v 144.388306 -0.000431 3053.630371
v 1328.324097 -0.000322 2378.785156
v 144.388306 -0.000216 1729.405762
v 1328.324097 -0.000216 1729.405762
v 1328.324097 -0.000216 1729.405762
vt 0.725000 0.337500
vt 0.850000 0.257812
vt 0.839399 0.323870
vt 0.850000 0.175000
vt 0.725000 0.175000
vn -0.0000 1.0000 0.0000
usemtl Default_Material
s 1
f 175/166/33 174/167/33 177/168/33
f 175/166/33 172/169/33 174/167/33
f 173/170/33 172/169/33 175/166/33
l 176 177
g Water.034_Scene.047
v -3999.385742 -0.000431 3053.630371
v 144.388306 -0.000431 3053.630371
v -3052.237305 -0.000266 2058.805664
v -3052.237305 -0.000282 2136.859375
v -636.897705 -0.000268 2058.805664
v -625.169678 0.000124 -358.794464
v -636.897705 0.000100 -338.723602
v -636.897705 0.000100 -212.984772
v -1877.551270 0.000133 -409.726166
v 144.388306 0.000282 -1326.496704
v -1986.695190 0.000100 -338.723663
v -3999.385742 0.000282 -1326.496704
v -3407.417725 0.000133 -409.726166
v -3407.417725 0.000108 -256.931000
v -3334.547852 0.000100 -205.999359
v -3334.548096 0.000100 -338.723663
v -3334.547852 -0.000232 1831.314819
v -3334.385010 -0.000249 1933.178101
v -3334.385254 -0.000268 2059.725342
v -3169.882080 0.335397 2058.832764
v -3170.630859 -0.000282 2136.859375
vt 0.725000 0.712500
vt 0.511523 0.600000
vt 0.643750 0.593750
vt 0.287500 0.712500
vt 0.350000 0.600000
vt 0.287500 0.175000
vt 0.725000 0.175000
vt 0.637500 0.587500
vt 0.500000 0.587500
vt 0.362500 0.587500
vt 0.350000 0.581250
vt 0.362500 0.575000
vt 0.637500 0.575000
vt 0.362500 0.325000
vt 0.637500 0.300000
vt 0.362500 0.312500
vt 0.362500 0.300000
vt 0.387500 0.300000
vt 0.387500 0.287500
vt 0.375000 0.300000
vt 0.375000 0.287500
vn -0.0000 1.0000 0.0000
vn 0.0013 1.0000 -0.0067
vn -0.1537 0.9881 0.0000
vn 0.0019 0.9999 -0.0107
vn 0.1426 0.9770 -0.1586
vn 0.0361 0.9794 -0.1984
usemtl Default_Material
s 1
f 187/171/34 186/172/34 183/173/34
f 189/174/34 186/172/34 187/171/34
f 189/174/34 190/175/34 186/172/34
f 178/176/34 190/175/34 189/174/34
f 183/173/34 179/177/34 187/171/34
f 186/172/34 184/178/34 183/173/34
f 188/179/34 184/178/34 186/172/34
f 193/180/34 188/179/34 186/172/34
f 190/175/34 193/180/34 186/172/34
f 191/181/34 193/180/34 190/175/34
f 178/176/34 191/181/34 190/175/34
f 191/181/34 192/182/34 193/180/34
f 184/178/34 185/183/34 183/173/34
f 185/183/34 179/177/34 183/173/34
f 191/181/34 178/176/34 192/182/34
f 192/182/34 178/176/34 194/184/34
f 182/185/34 179/177/34 185/183/34
f 178/176/34 195/186/34 194/184/34
f 178/176/34 196/187/35 195/186/34
f 180/188/36 181/189/37 182/185/34
f 197/190/38 181/189/37 180/188/36
f 198/191/39 181/189/37 197/190/38
f 196/187/35 198/191/39 197/190/38
f 181/189/37 179/177/34 182/185/34
f 198/191/39 178/176/34 181/189/37
f 196/187/35 178/176/34 198/191/39
f 181/189/37 178/176/34 179/177/34
